<?xml version="1.0" encoding="UTF-8" standalone="no"?>
<!DOCTYPE svg PUBLIC "-//W3C//DTD SVG 1.1//EN" "http://www.w3.org/Graphics/SVG/1.1/DTD/svg11.dtd">
<svg version="1.1" xmlns="http://www.w3.org/2000/svg" xmlns:xlink="http://www.w3.org/1999/xlink" preserveAspectRatio="xMidYMid meet" viewBox="0 0 20 20" width="20" height="20"><defs><path d="M15.02 2.01L15.27 2.03L15.51 2.05L15.76 2.08L16.01 2.12L16.25 2.16L16.49 2.21L16.73 2.27L16.97 2.33L17.21 2.41L17.45 2.48L17.69 2.57L17.92 2.66L18.15 2.76L18.38 2.87L18.61 2.98L18.83 3.1L19.05 3.22L19.27 3.36L19.48 3.5L19.5 3.51L19.51 3.52L19.53 3.53L19.54 3.54L19.55 3.55L19.57 3.56L19.58 3.57L19.59 3.58L19.6 3.6L19.61 3.61L19.62 3.62L19.64 3.63L19.65 3.65L19.66 3.66L19.67 3.68L19.68 3.69L19.68 3.7L19.69 3.72L19.7 3.73L19.71 3.75L19.72 3.76L19.73 3.78L19.73 3.79L19.74 3.81L19.75 3.82L19.75 3.84L19.76 3.86L19.76 3.87L19.77 3.89L19.77 3.91L19.77 3.92L19.78 3.94L19.78 3.96L19.78 3.97L19.79 3.99L19.79 4.01L19.79 4.02L19.79 4.04L19.79 4.06L19.79 4.08L19.79 17.13L19.8 17.16L19.8 17.16L19.8 17.16L19.8 17.17L19.8 17.17L19.8 17.17L19.8 17.18L19.8 17.18L19.8 17.18L19.8 17.2L19.8 17.23L19.8 17.25L19.8 17.28L19.8 17.31L19.79 17.33L19.79 17.36L19.78 17.39L19.78 17.42L19.77 17.44L19.76 17.47L19.75 17.5L19.74 17.52L19.73 17.55L19.72 17.57L19.7 17.59L19.69 17.62L19.68 17.64L19.66 17.66L19.64 17.68L19.63 17.7L19.61 17.72L19.59 17.74L19.57 17.76L19.55 17.78L19.53 17.79L19.51 17.81L19.48 17.83L19.46 17.84L19.44 17.85L19.41 17.87L19.39 17.88L19.37 17.89L19.34 17.9L19.31 17.91L19.29 17.91L19.26 17.92L19.23 17.93L19.21 17.93L19.18 17.94L19.15 17.94L19.12 17.94L19.09 17.94L19.08 17.94L19.07 17.94L19.06 17.94L19.05 17.94L19.03 17.94L19.01 17.94L19 17.93L18.99 17.93L18.98 17.93L18.97 17.93L18.96 17.93L18.95 17.93L18.94 17.92L18.91 17.92L18.89 17.91L18.88 17.91L18.87 17.9L18.86 17.9L18.85 17.9L18.83 17.89L18.82 17.89L18.81 17.88L18.8 17.88L18.79 17.87L18.78 17.87L18.77 17.86L18.75 17.85L18.74 17.85L18.73 17.84L18.71 17.83L18.7 17.82L18.51 17.7L18.32 17.59L18.13 17.48L17.93 17.37L17.73 17.27L17.53 17.18L17.33 17.1L17.12 17.02L16.92 16.95L16.71 16.88L16.5 16.82L16.29 16.77L16.07 16.72L15.86 16.68L15.65 16.64L15.43 16.62L15.22 16.59L15 16.58L14.78 16.57L14.57 16.57L14.35 16.57L14.14 16.58L13.92 16.59L13.7 16.62L13.49 16.64L13.28 16.68L13.06 16.72L12.85 16.77L12.64 16.82L12.43 16.88L12.22 16.95L12.01 17.02L11.81 17.1L11.61 17.18L11.4 17.27L11.21 17.37L11.01 17.48L10.81 17.59L10.62 17.7L10.43 17.82L10.42 17.83L10.42 17.84L10.4 17.85L10.39 17.85L10.38 17.86L10.37 17.86L10.36 17.87L10.35 17.87L10.34 17.88L10.32 17.88L10.3 17.89L10.28 17.9L10.26 17.91L10.25 17.91L10.24 17.91L10.23 17.91L10.22 17.92L10.21 17.92L10.2 17.92L10.18 17.93L10.16 17.93L10.14 17.93L10.12 17.94L10.1 17.94L10.08 17.94L10.07 17.94L10.05 17.94L10.04 17.94L9.94 17.94L9.93 17.94L9.92 17.94L9.91 17.94L9.89 17.94L9.88 17.94L9.87 17.93L9.85 17.93L9.84 17.93L9.83 17.93L9.82 17.93L9.81 17.92L9.8 17.92L9.78 17.92L9.77 17.92L9.76 17.91L9.74 17.91L9.73 17.9L9.72 17.9L9.71 17.9L9.7 17.89L9.69 17.89L9.68 17.88L9.67 17.88L9.66 17.88L9.66 17.87L9.65 17.87L9.64 17.86L9.62 17.85L9.61 17.85L9.6 17.84L9.59 17.84L9.58 17.83L9.57 17.83L9.57 17.82L9.38 17.7L9.19 17.58L8.99 17.47L8.79 17.37L8.59 17.27L8.39 17.18L8.19 17.1L7.99 17.02L7.78 16.95L7.57 16.88L7.36 16.82L7.15 16.77L6.94 16.72L6.72 16.68L6.51 16.64L6.29 16.62L6.08 16.59L5.86 16.58L5.65 16.57L5.43 16.57L5.21 16.57L5 16.58L4.78 16.59L4.57 16.62L4.35 16.64L4.14 16.68L3.92 16.72L3.71 16.77L3.5 16.82L3.29 16.88L3.08 16.95L2.88 17.02L2.67 17.1L2.47 17.18L2.27 17.27L2.07 17.37L1.87 17.47L1.68 17.58L1.48 17.7L1.3 17.82L1.27 17.84L1.25 17.85L1.22 17.86L1.2 17.88L1.17 17.89L1.14 17.9L1.12 17.91L1.09 17.91L1.07 17.92L1.04 17.93L1.01 17.93L0.99 17.93L0.96 17.94L0.93 17.94L0.9 17.94L0.88 17.94L0.85 17.94L0.82 17.93L0.8 17.93L0.77 17.93L0.74 17.92L0.72 17.91L0.69 17.9L0.67 17.9L0.64 17.89L0.62 17.88L0.59 17.86L0.57 17.85L0.55 17.84L0.52 17.82L0.5 17.81L0.48 17.79L0.46 17.77L0.44 17.76L0.42 17.74L0.4 17.72L0.38 17.7L0.36 17.67L0.34 17.65L0.33 17.63L0.32 17.62L0.31 17.61L0.3 17.6L0.3 17.58L0.29 17.57L0.28 17.56L0.28 17.55L0.27 17.54L0.27 17.53L0.26 17.51L0.26 17.5L0.25 17.49L0.25 17.48L0.24 17.46L0.24 17.45L0.23 17.43L0.23 17.41L0.22 17.4L0.22 17.39L0.22 17.38L0.21 17.35L0.21 17.34L0.21 17.32L0.2 17.31L0.2 17.3L0.2 17.28L0.2 17.26L0.2 17.24L0.2 17.23L0.2 17.22L0.2 17.19L0.2 17.16L0.2 17.15L0.21 17.14L0.21 17.13L0.21 4.09L0.21 4.08L0.21 4.06L0.21 4.04L0.21 4.02L0.21 4.01L0.22 3.99L0.22 3.97L0.22 3.96L0.23 3.94L0.23 3.92L0.23 3.91L0.24 3.89L0.25 3.87L0.25 3.86L0.26 3.84L0.26 3.82L0.27 3.81L0.28 3.79L0.29 3.78L0.29 3.76L0.3 3.75L0.31 3.73L0.32 3.72L0.33 3.71L0.34 3.69L0.35 3.68L0.36 3.66L0.37 3.65L0.38 3.64L0.39 3.62L0.41 3.61L0.42 3.6L0.43 3.59L0.44 3.58L0.46 3.57L0.47 3.55L0.48 3.54L0.5 3.53L0.51 3.52L0.53 3.51L0.74 3.37L0.96 3.24L1.18 3.11L1.4 3L1.63 2.88L1.86 2.78L2.09 2.68L2.32 2.59L2.56 2.5L2.79 2.42L3.03 2.35L3.27 2.29L3.51 2.23L3.75 2.18L4 2.13L4.24 2.1L4.49 2.07L4.73 2.04L4.98 2.03L5.23 2.02L5.47 2.01L5.72 2.02L5.97 2.03L6.21 2.05L6.46 2.07L6.71 2.1L6.95 2.14L7.19 2.19L7.44 2.24L7.68 2.3L7.92 2.36L8.16 2.44L8.4 2.52L8.63 2.6L8.87 2.7L9.1 2.8L9.33 2.9L9.55 3.02L9.78 3.14L10 3.27L10.22 3.14L10.45 3.02L10.67 2.9L10.9 2.79L11.13 2.69L11.37 2.6L11.6 2.51L11.84 2.43L12.08 2.36L12.32 2.29L12.56 2.23L12.81 2.18L13.05 2.13L13.29 2.09L13.54 2.06L13.79 2.03L14.03 2.02L14.28 2L14.53 2L14.77 2L15.02 2.01ZM5.25 3.41L5.15 3.42L5.05 3.42L4.95 3.43L4.85 3.44L4.74 3.44L4.64 3.45L4.54 3.47L4.44 3.48L4.34 3.49L4.24 3.51L4.14 3.53L4.05 3.54L3.95 3.56L3.85 3.58L3.75 3.61L3.65 3.63L3.55 3.66L3.46 3.68L3.36 3.71L3.26 3.74L3.17 3.77L3.07 3.8L2.98 3.83L2.88 3.87L2.79 3.9L2.69 3.94L2.6 3.98L2.51 4.02L2.41 4.06L2.32 4.1L2.23 4.14L2.14 4.19L2.05 4.23L1.96 4.28L1.87 4.33L1.78 4.38L1.69 4.43L1.61 4.48L1.61 16.04L1.79 15.95L1.97 15.87L2.16 15.79L2.35 15.72L2.54 15.65L2.73 15.59L2.92 15.53L3.11 15.48L3.3 15.43L3.49 15.38L3.69 15.34L3.88 15.3L4.08 15.27L4.27 15.24L4.47 15.22L4.67 15.2L4.86 15.18L5.06 15.17L5.26 15.17L5.46 15.17L5.65 15.17L5.85 15.18L6.05 15.19L6.24 15.2L6.44 15.23L6.64 15.25L6.83 15.28L7.03 15.31L7.22 15.35L7.42 15.39L7.61 15.44L7.8 15.49L7.99 15.55L8.18 15.61L8.37 15.67L8.56 15.74L8.75 15.82L8.93 15.89L9.12 15.98L9.3 16.06L9.3 4.47L9.21 4.42L9.12 4.37L9.04 4.32L8.95 4.27L8.86 4.22L8.77 4.18L8.68 4.13L8.58 4.09L8.49 4.05L8.4 4.01L8.31 3.97L8.21 3.93L8.12 3.9L8.02 3.86L7.93 3.83L7.83 3.8L7.74 3.77L7.64 3.74L7.55 3.71L7.45 3.68L7.35 3.65L7.25 3.63L7.16 3.61L7.06 3.58L6.96 3.56L6.86 3.54L6.76 3.53L6.66 3.51L6.56 3.49L6.46 3.48L6.36 3.47L6.26 3.45L6.16 3.44L6.06 3.44L5.96 3.43L5.86 3.42L5.76 3.42L5.66 3.41L5.55 3.41L5.45 3.41L5.35 3.41L5.25 3.41ZM14.15 3.41L13.95 3.43L13.75 3.44L13.55 3.47L13.35 3.5L13.15 3.53L12.96 3.57L12.76 3.62L12.57 3.67L12.37 3.72L12.18 3.79L11.99 3.85L11.8 3.92L11.61 4L11.43 4.08L11.24 4.17L11.06 4.27L10.88 4.36L10.7 4.47L10.7 16.05L10.88 15.97L11.07 15.88L11.25 15.81L11.44 15.73L11.63 15.66L11.82 15.6L12.01 15.54L12.2 15.48L12.39 15.43L12.58 15.38L12.78 15.34L12.97 15.3L13.17 15.27L13.36 15.24L13.56 15.21L13.75 15.19L13.95 15.18L14.15 15.17L14.35 15.16L14.54 15.16L14.74 15.16L14.94 15.16L15.14 15.17L15.33 15.19L15.53 15.21L15.73 15.23L15.92 15.26L16.12 15.29L16.31 15.33L16.51 15.37L16.7 15.42L16.89 15.47L17.08 15.52L17.27 15.58L17.46 15.64L17.65 15.71L17.84 15.78L18.02 15.86L18.21 15.94L18.39 16.03L18.39 4.47L18.21 4.36L18.03 4.27L17.85 4.17L17.67 4.08L17.48 4L17.29 3.92L17.1 3.85L16.91 3.79L16.72 3.72L16.52 3.67L16.33 3.62L16.13 3.57L15.94 3.53L15.74 3.5L15.54 3.47L15.34 3.44L15.14 3.43L14.95 3.41L14.75 3.4L14.55 3.4L14.35 3.4L14.15 3.41Z" id="a26WSOktMk"></path></defs><g><g><g><use xlink:href="#a26WSOktMk" opacity="1" fill="#f8f8f8" fill-opacity="1"></use><g><use xlink:href="#a26WSOktMk" opacity="1" fill-opacity="0" stroke="#000000" stroke-width="1" stroke-opacity="0"></use></g></g></g></g></svg>