<?xml version="1.0" encoding="utf-8"?>
<!-- Svg Vector Icons : http://www.onlinewebfonts.com/icon -->
<!DOCTYPE svg PUBLIC "-//W3C//DTD SVG 1.1//EN" "http://www.w3.org/Graphics/SVG/1.1/DTD/svg11.dtd">
<svg version="1.1" xmlns="http://www.w3.org/2000/svg" xmlns:xlink="http://www.w3.org/1999/xlink" x="0px" y="0px" viewBox="0 0 1000 1000" enable-background="new 0 0 1000 1000" xml:space="preserve">
<metadata> Svg Vector Icons : http://www.onlinewebfonts.com/icon </metadata>
<g><g><g id="_x35__21_"><g><path fill="ghostwhite" d="M867.5,10h-735C65.3,10,10,70.3,10,137.6v730.7C10,935.5,64.5,990,131.7,990h730.2c67.2,0,128.1-55.2,128.1-122.5v-735C990,65.2,934.7,10,867.5,10z M928.8,867.5c0,33.6-33.3,61.6-66.9,61.6H131.7c-33.6,0-60.9-27.3-60.9-60.9V137.6c0-33.6,28.1-66.3,61.6-66.3h735c33.6,0,61.3,27.6,61.3,61.3L928.8,867.5L928.8,867.5z M745,622.5H255c-16.9,0-30.6,13.7-30.6,30.6s13.7,30.6,30.6,30.6h490c16.9,0,30.6-13.7,30.6-30.6S761.9,622.5,745,622.5z M745,438.8H255c-16.9,0-30.6,13.7-30.6,30.6S238.1,500,255,500h490c16.9,0,30.6-13.7,30.6-30.6S761.9,438.8,745,438.8z M745,255H255c-16.9,0-30.6,13.7-30.6,30.6s13.7,30.6,30.6,30.6h490c16.9,0,30.6-13.7,30.6-30.6S761.9,255,745,255z"/></g></g></g><g></g><g></g><g></g><g></g><g></g><g></g><g></g><g></g><g></g><g></g><g></g><g></g><g></g><g></g><g></g></g>
</svg>